# xmcd CD database file
# Copyright 1993-1996 (C) Ti Kan
#
# Track frame offsets:
#    150
#    13365
#    26967
#    41332
#    52262
#    67662
#    87652
#    101062
#    115220
#    137512
#    151590
#    166217
#    181997
#    203405
#    223350
#    255055
#
# Disc length: 3657 seconds
#
# Revision: 1
# Processed by: cddbd v1.4PL0 Copyright (c) Steve Scherf et al.
# Submitted via: Gronk 1.4
#
DISCID=d60e4710
DTITLE=Emmylou Harris - At the Ryman
DYEAR=1900
DGENRE=country
TTITLE0=Guitar Town
TTITLE1=Half As Much
TTITLE2=Cattle Call
TTITLE3=Guess Things Happen That Way
TTITLE4=Hard Times
TTITLE5=Mansion on the Hill
TTITLE6=Scotland
TTITLE7=Montana Cowgirl
TTITLE8=Like Strangers
TTITLE9=Lodi
TTITLE10=Calling My Children Home
TTITLE11=If I Could Be There
TTITLE12=Walls of Time
TTITLE13=Get Up John
TTITLE14=It's a Hard Life Wherever You Go/Abraham, ...
TTITLE15=Smoke Along the Track
EXTD=
EXTT0=
EXTT1=
EXTT2=
EXTT3=
EXTT4=
EXTT5=
EXTT6=
EXTT7=
EXTT8=
EXTT9=
EXTT10=
EXTT11=
EXTT12=
EXTT13=
EXTT14=
EXTT15=
PLAYORDER=
